<svg id="Capa_1" enable-background="new 0 0 497.298 497.298" height="512" viewBox="0 0 497.298 497.298" width="512" xmlns="http://www.w3.org/2000/svg"><g><path d="m260.574 154.091c15.712 0 28.449 12.737 28.449 28.449 0 15.712-12.737 28.449-28.449 28.449h-48.019v-56.899h48.019z" fill="#ffcebf"/><path d="m81.445 210.989c-15.712 0-28.449-12.737-28.449-28.449 0-15.712 12.737-28.449 28.449-28.449h45.094v56.899h-45.094z" fill="#ffb09e"/><path d="m173.549 0h-3.87c-18.471 0-33.445 14.974-33.445 33.445 0 0-.437 16.549 0 16.113.437-.438 69.109 0 69.109 0l1.65-16.113c.001-18.471-14.973-33.445-33.444-33.445z" fill="#918291"/><path d="m98.142 62.729c-19.929 20.945-26.09 51.458-15.849 78.495l2.871 7.579 14.639 38.436h95.866l11.325-138.708-78.578-4.203z" fill="#a79ba7"/><path d="m217.215 347.218-4.66-2.04v-104.67h-81.98v104.67l-4.55 1.99-13.713 58.421 60.551 54.232 58.708-96.091z" fill="#ffcebf"/><path d="m151.473 291.714v8.479h-20.898v44.986l-4.55 1.99-7.738 32.965 26.645-13.3c6.66-3.324 10.869-10.129 10.869-17.573v-8.44c0-5.155 4.375-9.164 9.52-8.84 1.768.111 3.543.168 5.324.168 9.79 0 19.424-1.656 28.59-4.908l.785-.275c4.321-1.533 8.501-3.321 12.535-5.332v-29.919h-61.082z" fill="#ffb09e"/><g id="XMLID_664_"><g><path d="m333.085 471.738v4.868c0 10.115-8.167 18.332-18.281 18.395l-286.249 1.772c-10.204.063-18.509-8.191-18.509-18.395v-6.64c0-44.77 26.48-85.3 67.47-103.28l48.51-21.28 42.52 74.04c1.34 2.33 4.71 2.33 6.05 0l42.62-74 48.4 21.24c40.989 17.98 67.469 58.51 67.469 103.28z" fill="#c1e9af"/></g></g><g><path d="m48.932 489.575v-6.641c0-44.77 26.48-85.3 67.47-103.28l22.584-9.907-12.961-22.569-48.51 21.28c-40.99 17.98-67.47 58.51-67.47 103.28v6.64c0 10.204 8.305 18.458 18.509 18.395l21.79-.135c-.906-2.175-1.412-4.559-1.412-7.063z" fill="#ade194"/></g><g><path d="m98.142 62.729c-8.035 8.444-13.837 18.461-17.223 29.161 5.513 28.381 30.553 49.862 60.522 49.862h57.942l7.611-93.221-78.578-4.204z" fill="#918291"/><g><path d="m259.82 157.544-13.205-16.639-104.389-8.952-29.892 4.489-14.853 39.058 4.041 87.094 48.485 42.207 34.568 5.705 22.903-2.918c31.764-15.667 52.343-48.171 52.343-84.217v-65.827z" fill="#ffdfcf"/></g><path d="m160.518 98.791h-20.402-.124l-28.005 17.487-10.11 8.366c-12.45 10.302-19.657 25.62-19.657 41.779v57.239c0 39.622 24.866 74.982 62.153 88.382l3.501 1.258c14.59 5.244 30.545 5.276 45.156.092l4.251-1.508c3.507-1.244 6.917-2.681 10.196-4.298-7.984.107-15.994-1.198-23.619-3.938l-3.5-1.258c-37.287-13.401-62.154-48.761-62.154-88.384v-57.238c0-.17.001-.34.002-.509.086-9.002 8.052-15.742 17.008-14.825 2.047.209 4.123.317 6.224.317h69.453c12.384 0 24.72 3.052 35.676 8.825l13.251 6.967-.022-58.753h-99.278z" fill="#ffcebf"/><path d="m266.882 112.599-7.061 28.31-6.258-3.602c-13.154-6.932-27.799-10.555-42.668-10.555h-69.455c-25.766 0-46.653-20.887-46.653-46.653 0-25.766 20.887-46.653 46.653-46.653h62.368c41.569-.001 72.355 38.634 63.074 79.153z" fill="#a79ba7"/><g><path d="m366.923 256.631c-66.46 0-120.33 53.88-120.33 120.33 0 48.81 29.05 90.83 70.81 109.71.948.429 1.903.846 2.864 1.25l9.558-7.212h84.713l5.629 4.18c.088-.043.178-.084.266-.128 39.61-19.68 66.82-60.57 66.82-107.8 0-66.45-53.87-120.33-120.33-120.33z" fill="#c8effe"/><path d="m334.68 471.324c-27.815-22.042-45.656-56.117-45.656-94.366 0-59.211 42.781-108.445 99.121-118.468-6.887-1.226-13.985-1.862-21.225-1.862-66.46 0-120.33 53.88-120.33 120.33 0 48.81 29.05 90.83 70.81 109.71.948.429 1.903.846 2.864 1.25z" fill="#99e6fc"/><g><path d="m408.34 331.728c0-8.11 6.58-14.69 14.68-14.69 4.05 0 7.73 1.65 10.39 4.3 2.66 2.66 4.3 6.33 4.3 10.39v69.57c0 10.57-3.32 20.89-9.48 29.49l-8.07 11.26.007 42.841c-16.11 8.03-34.017 12.409-53.247 12.409-17.65 0-31.556-2.549-46.656-9.379l-.014-40.861-4.58-4.42c-12.48-12.05-19.53-28.67-19.53-46.02v-28.14c0-4.05 1.64-7.73 4.3-10.38 2.65-2.66 6.33-4.3 10.38-4.3 2.78 0 5.39.78 7.61 2.12l1.82-.01v-36.4c0-4.06 1.64-7.73 4.3-10.39 2.66-2.65 6.32-4.3 10.38-4.3 8.11 0 14.69 6.58 14.69 14.69v-12.4c0-4.06 1.64-7.73 4.3-10.39 2.65-2.65 6.33-4.3 10.38-4.3 8.11 0 14.68 6.58 14.68 14.69v18.09c0-4.05 1.64-7.72 4.3-10.38 2.65-2.65 6.33-4.3 10.38-4.3 8.11 0 14.68 6.58 14.68 14.68z" fill="#ffcebf"/></g><g><path d="m408.34 331.728c0-8.11 6.58-14.69 14.68-14.69 4.05 0 7.73 1.65 10.39 4.3 2.66 2.66 4.3 6.33 4.3 10.39v69.57c0 10.57-3.32 20.89-9.48 29.49l-8.07 11.26.007 42.841c-16.11 8.03-34.017 12.409-53.247 12.409-17.65 0-31.556-2.549-46.656-9.379l-.014-40.861-4.58-4.42c-12.48-12.05-19.53-28.67-19.53-46.02v-28.14c0-4.05 1.64-7.73 4.3-10.38 2.65-2.66 6.33-4.3 10.38-4.3 2.78 0 5.39.78 7.61 2.12l1.82-.01v-36.4c0-4.06 1.64-7.73 4.3-10.39 2.66-2.65 6.32-4.3 10.38-4.3 8.11 0 14.69 6.58 14.69 14.69v-12.4c0-4.06 1.64-7.73 4.3-10.39 2.65-2.65 6.33-4.3 10.38-4.3 8.11 0 14.68 6.58 14.68 14.69v18.09c0-4.05 1.64-7.72 4.3-10.38 2.65-2.65 6.33-4.3 10.38-4.3 8.11 0 14.68 6.58 14.68 14.68z" fill="#ffcebf"/></g><g><path d="m382.854 485.429c-10.17 0-19.097-.846-27.726-2.87-11.088-2.601-18.932-12.489-18.936-23.879l-.006-17.126c-.001-4.068-1.655-7.96-4.582-10.785-12.481-12.044-19.53-28.644-19.53-45.988v-28.172c0-.932.104-1.848.27-2.732-.5-.052-1.011-.079-1.524-.079-4.05 0-7.73 1.64-10.38 4.3-2.66 2.65-4.3 6.33-4.3 10.38v28.14c0 17.35 7.05 33.97 19.53 46.02l4.58 4.42.014 40.86c15.1 6.83 29.006 9.379 46.656 9.379 19.23 0 37.137-4.379 53.247-12.409l-.001-5.333c-11.724 3.837-24.21 5.874-37.312 5.874z" fill="#ffb09e"/></g><path d="m437.71 392.368v8.93c0 10.57-3.32 20.89-9.48 29.49l-8.07 11.26v12.05h-38.2c-9.75 0-17.66-7.91-17.66-17.67v-1.53c0-4.88 1.98-9.3 5.17-12.49 3.2-3.2 7.62-5.18 12.49-5.18v-8.09c0-9.26 7.51-16.77 16.77-16.77z" fill="#fe99a0"/><g id="XMLID_669_"><g><path d="m334.93 426.408v5.97c0 8.11-6.57 14.68-14.68 14.68l-4.58-4.42c-8.76-8.45-14.84-19.16-17.68-30.79l.55-.13h21.71c8.11 0 14.68 6.58 14.68 14.69z" fill="#fe99a0"/></g></g></g></g><path d="m123.347 480.65h-61.777c-2.884 0-5.223-2.338-5.223-5.223v-23.038c0-2.884 2.338-5.223 5.223-5.223h61.777c2.884 0 5.223 2.338 5.223 5.223v23.038c0 2.885-2.338 5.223-5.223 5.223z" fill="#fee97d"/><g fill="#ffb09e"><path d="m364.119 317.634c0-7.277 2.021-14.375 5.786-20.317l1.77-2.913c-2.204-1.321-4.767-1.986-7.522-1.986-4.06 0-7.72 1.65-10.38 4.3-2.66 2.66-4.3 6.33-4.009 10.36l-.466 70.158c8.181.017 14.822-6.611 14.822-14.792v-44.81z"/><path d="m408.124 377.266c8.191 0 14.831-6.64 14.831-14.831v-27.23c0-6.191 1.496-12.232 4.253-17.561-1.326-.394-2.725-.613-4.176-.613-7.859 0-14.268 6.199-14.644 13.975z"/><path d="m378.682 377.266c8.207 0 14.86-6.653 14.86-14.86v-32.23c0-6.693 1.729-13.222 4.932-18.853-1.502-.519-3.107-.814-4.785-.814-4.05 0-7.73 1.65-10.38 4.3-2.089 2.089-3.589 4.919-4.218 8.092-.074.372-.103.752-.105 1.131z"/><path d="m334.98 324.332c0-6.657 1.381-13.167 3.953-18.964-1.27-.358-2.605-.563-3.99-.563-4.06 0-7.72 1.65-10.38 4.3-2.66 2.66-4.3 6.33-4.3 10.39l-.084 57.758c8.174 0 14.8-6.626 14.8-14.8v-38.121z"/></g></g></svg>